<?xml version="1.0" standalone="no"?><svg xmlns:xlink="http://www.w3.org/1999/xlink" xmlns="http://www.w3.org/2000/svg" viewBox="0 0 1000 636.3655796928673" preserveAspectRatio="xMaxYMax slice"><g transform="scale(1.6443555030823445)"><rect x="0" y="0" width="608.1428571428571" height="387" fill="#ffffff"/><rect x="0" y="0" width="55.29" height="55.29" fill="#282bd2"/><path d="M 0 0 A 55.29 55.29 0 0 1 55.29 55.29 L 0 55.29" fill="#18ace2"/><rect x="55.285714285714285" y="0" width="55.285714285714285" height="55.285714285714285" fill="#ffffff"/><rect x="55.29" y="0" width="27.64" height="27.64" fill="#282bd2"/><path d="M 55.29 0 A 27.64 27.64 0 0 1  82.93 27.64 L 55.29 0 A 27.64 27.64 0 0 0 82.93 27.64" fill="#282bd2"/><rect x="82.93" y="0" width="27.64" height="27.64" fill="#18ace2"/><path d="M 82.93 0 A 27.64 27.64 0 0 0 110.57000000000001 27.64 L 110.57000000000001 0" fill="#18ace2"/><rect x="55.29" y="27.64" width="27.64" height="27.64" fill="#18ace2"/><path d="M 55.29 55.28 A 27.64 27.64 0 0 1  82.93 27.64 L 55.29 55.28 A 27.64 27.64 0 0 0 82.93 27.64" fill="#18ace2"/><rect x="82.93" y="27.64" width="27.64" height="27.64" fill="#18ace2"/><path d="M 82.93 27.64 A 27.64 27.64 0 0 1  110.57000000000001 55.28 L 82.93 27.64 A 27.64 27.64 0 0 0 110.57000000000001 55.28" fill="#18ace2"/><rect x="110.57142857142857" y="0" width="55.285714285714285" height="55.285714285714285" fill="#ffffff"/><rect x="110.57" y="0" width="27.64" height="27.64" fill="#282bd2"/><path d="M 110.57 0 A 27.64 27.64 0 0 1 138.20999999999998 27.64 L 110.57 27.64" fill="#282bd2"/><rect x="138.21" y="0" width="27.64" height="27.64" fill="#18ace2"/><path d="M 138.21 0 A 27.64 27.64 0 0 1  165.85000000000002 27.64 L 138.21 0 A 27.64 27.64 0 0 0 165.85000000000002 27.64" fill="#282bd2"/><rect x="110.57" y="27.64" width="27.64" height="27.64" fill="#282bd2"/><path d="M 110.57 27.64 A 27.64 27.64 0 0 1 138.20999999999998 55.28 L 110.57 55.28" fill="#282bd2"/><rect x="138.21" y="27.64" width="27.64" height="27.64" fill="#282bd2"/><path d="M 138.21 55.28 A 27.64 27.64 0 0 0 165.85000000000002 27.64 L 138.21 27.64" fill="#18ace2"/><rect x="165.86" y="0" width="55.29" height="55.29" fill="#18ace2"/><path d="M 165.86 55.29 A 55.29 55.29 0 0 1  221.15 0 L 165.86 55.29 A 55.29 55.29 0 0 0 221.15 0" fill="#282bd2"/><rect x="221.14285714285714" y="0" width="55.285714285714285" height="55.285714285714285" fill="#ffffff"/><rect x="221.14" y="0" width="27.64" height="27.64" fill="#18ace2"/><path d="M 221.14 27.64 A 27.64 27.64 0 0 0 248.77999999999997 0 L 221.14 0" fill="#282bd2"/><rect x="248.79" y="0" width="27.64" height="27.64" fill="#18ace2"/><path d="M 248.79 27.64 A 27.64 27.64 0 0 0 276.43 0 L 248.79 0" fill="#18ace2"/><rect x="221.14" y="27.64" width="27.64" height="27.64" fill="#282bd2"/><path d="M 221.14 27.64 A 27.64 27.64 0 0 1 248.77999999999997 55.28 L 221.14 55.28" fill="#282bd2"/><rect x="248.79" y="27.64" width="27.64" height="27.64" fill="#18ace2"/><path d="M 248.79 27.64 A 27.64 27.64 0 0 1 276.43 55.28 L 248.79 55.28" fill="#282bd2"/><rect x="276.42857142857144" y="0" width="55.285714285714285" height="55.285714285714285" fill="#ffffff"/><rect x="276.43" y="0" width="27.64" height="27.64" fill="#18ace2"/><path d="M 276.43 0 A 27.64 27.64 0 0 1 304.07 27.64 L 276.43 27.64" fill="#18ace2"/><rect x="304.07" y="0" width="27.64" height="27.64" fill="#282bd2"/><path d="M 304.07 0 A 27.64 27.64 0 0 1  331.71 27.64 L 304.07 0 A 27.64 27.64 0 0 0 331.71 27.64" fill="#18ace2"/><rect x="276.43" y="27.64" width="27.64" height="27.64" fill="#282bd2"/><path d="M 276.43 55.28 A 27.64 27.64 0 0 1  304.07 27.64 L 276.43 55.28 A 27.64 27.64 0 0 0 304.07 27.64" fill="#18ace2"/><rect x="304.07" y="27.64" width="27.64" height="27.64" fill="#18ace2"/><path d="M 304.07 27.64 A 27.64 27.64 0 0 0 331.71 55.28 L 331.71 27.64" fill="#18ace2"/><rect x="331.7142857142857" y="0" width="55.285714285714285" height="55.285714285714285" fill="#ffffff"/><rect x="331.71" y="0" width="27.64" height="27.64" fill="#282bd2"/><path d="M 331.71 0 A 27.64 27.64 0 0 1 359.34999999999997 27.64 L 331.71 27.64" fill="#18ace2"/><rect x="359.36" y="0" width="27.64" height="27.64" fill="#18ace2"/><path d="M 359.36 0 A 27.64 27.64 0 0 0 387 27.64 L 387 0" fill="#18ace2"/><rect x="331.71" y="27.64" width="27.64" height="27.64" fill="#282bd2"/><path d="M 331.71 55.28 A 27.64 27.64 0 0 0 359.34999999999997 27.64 L 331.71 27.64" fill="#18ace2"/><rect x="359.36" y="27.64" width="27.64" height="27.64" fill="#18ace2"/><path d="M 359.36 27.64 A 27.64 27.64 0 0 1  387 55.28 L 359.36 27.64 A 27.64 27.64 0 0 0 387 55.28" fill="#18ace2"/><rect x="387" y="0" width="55.285714285714285" height="55.285714285714285" fill="#ffffff"/><rect x="387" y="0" width="27.64" height="27.64" fill="#18ace2"/><path d="M 387 0 A 27.64 27.64 0 0 1  414.64 27.64 L 387 0 A 27.64 27.64 0 0 0 414.64 27.64" fill="#18ace2"/><rect x="414.64" y="0" width="27.64" height="27.64" fill="#282bd2"/><path d="M 414.64 0 A 27.64 27.64 0 0 1 442.28 27.64 L 414.64 27.64" fill="#18ace2"/><rect x="387" y="27.64" width="27.64" height="27.64" fill="#18ace2"/><path d="M 387 55.28 A 27.64 27.64 0 0 0 414.64 27.64 L 387 27.64" fill="#18ace2"/><rect x="414.64" y="27.64" width="27.64" height="27.64" fill="#18ace2"/><path d="M 414.64 27.64 A 27.64 27.64 0 0 0 442.28 55.28 L 442.28 27.64" fill="#18ace2"/><rect x="442.29" y="0" width="55.29" height="55.29" fill="#18ace2"/><path d="M 442.29 55.29 A 55.29 55.29 0 0 1  497.58000000000004 0 L 442.29 55.29 A 55.29 55.29 0 0 0 497.58000000000004 0" fill="#18ace2"/><rect x="497.57" y="0" width="55.29" height="55.29" fill="#282bd2"/><path d="M 497.57 0 A 55.29 55.29 0 0 0 552.86 55.29 L 552.86 0" fill="#282bd2"/><rect x="552.8571428571429" y="0" width="55.285714285714285" height="55.285714285714285" fill="#ffffff"/><rect x="552.86" y="0" width="27.64" height="27.64" fill="#282bd2"/><path d="M 552.86 27.64 A 27.64 27.64 0 0 1  580.5 0 L 580.5 27.64" fill="#18ace2"/><rect x="580.5" y="0" width="27.64" height="27.64" fill="#282bd2"/><path d="M 580.5 0 A 27.64 27.64 0 0 1  608.14 27.64 L 580.5 0 A 27.64 27.64 0 0 0 608.14 27.64" fill="#18ace2"/><rect x="552.86" y="27.64" width="27.64" height="27.64" fill="#282bd2"/><path d="M 552.86 55.28 A 27.64 27.64 0 0 1  580.5 27.64 L 552.86 55.28 A 27.64 27.64 0 0 0 580.5 27.64" fill="#282bd2"/><rect x="580.5" y="27.64" width="27.64" height="27.64" fill="#18ace2"/><path d="M 580.5 55.28 A 27.64 27.64 0 0 0 608.14 27.64 L 580.5 27.64" fill="#18ace2"/><rect x="0" y="55.285714285714285" width="55.285714285714285" height="55.285714285714285" fill="#ffffff"/><rect x="0" y="55.29" width="27.64" height="27.64" fill="#18ace2"/><path d="M 0 55.29 A 27.64 27.64 0 0 1 27.64 82.93 L 0 82.93" fill="#282bd2"/><rect x="27.64" y="55.29" width="27.64" height="27.64" fill="#18ace2"/><path d="M 27.64 55.29 A 27.64 27.64 0 0 0 55.28 82.93 L 55.28 55.29" fill="#18ace2"/><rect x="0" y="82.93" width="27.64" height="27.64" fill="#18ace2"/><path d="M 0 110.57000000000001 A 27.64 27.64 0 0 0 27.64 82.93 L 0 82.93" fill="#282bd2"/><rect x="27.64" y="82.93" width="27.64" height="27.64" fill="#282bd2"/><path d="M 27.64 82.93 A 27.64 27.64 0 0 0 55.28 110.57000000000001 L 55.28 82.93" fill="#282bd2"/><rect x="55.29" y="55.29" width="55.29" height="55.29" fill="#282bd2"/><path d="M 55.29 55.29 A 55.29 55.29 0 0 1  110.58 110.58 L 55.29 55.29 A 55.29 55.29 0 0 0 110.58 110.58" fill="#18ace2"/><rect x="110.57" y="55.29" width="55.29" height="55.29" fill="#282bd2"/><path d="M 110.57 55.29 A 55.29 55.29 0 0 0 165.85999999999999 110.58 L 165.85999999999999 55.29" fill="#282bd2"/><rect x="165.86" y="55.29" width="55.29" height="55.29" fill="#18ace2"/><path d="M 165.86 55.29 A 55.29 55.29 0 0 0 221.15 110.58 L 221.15 55.29" fill="#18ace2"/><rect x="221.14" y="55.29" width="55.29" height="55.29" fill="#282bd2"/><path d="M 221.14 55.29 A 55.29 55.29 0 0 1  276.43 110.58 L 221.14 55.29 A 55.29 55.29 0 0 0 276.43 110.58" fill="#18ace2"/><rect x="276.43" y="55.29" width="55.29" height="55.29" fill="#282bd2"/><path d="M 276.43 110.58 A 55.29 55.29 0 0 1  331.72 55.29 L 276.43 110.58 A 55.29 55.29 0 0 0 331.72 55.29" fill="#282bd2"/><rect x="331.7142857142857" y="55.285714285714285" width="55.285714285714285" height="55.285714285714285" fill="#ffffff"/><rect x="331.71" y="55.29" width="27.64" height="27.64" fill="#18ace2"/><path d="M 331.71 82.93 A 27.64 27.64 0 0 0 359.34999999999997 55.29 L 331.71 55.29" fill="#282bd2"/><rect x="359.36" y="55.29" width="27.64" height="27.64" fill="#282bd2"/><path d="M 359.36 55.29 A 27.64 27.64 0 0 1 387 82.93 L 359.36 82.93" fill="#282bd2"/><rect x="331.71" y="82.93" width="27.64" height="27.64" fill="#18ace2"/><path d="M 331.71 82.93 A 27.64 27.64 0 0 0 359.34999999999997 110.57000000000001 L 359.34999999999997 82.93" fill="#282bd2"/><rect x="359.36" y="82.93" width="27.64" height="27.64" fill="#18ace2"/><path d="M 359.36 110.57000000000001 A 27.64 27.64 0 0 1  387 82.93 L 359.36 110.57000000000001 A 27.64 27.64 0 0 0 387 82.93" fill="#282bd2"/><rect x="387" y="55.285714285714285" width="55.285714285714285" height="55.285714285714285" fill="#ffffff"/><rect x="387" y="55.29" width="27.64" height="27.64" fill="#18ace2"/><path d="M 387 82.93 A 27.64 27.64 0 0 0 414.64 55.29 L 387 55.29" fill="#282bd2"/><rect x="414.64" y="55.29" width="27.64" height="27.64" fill="#282bd2"/><path d="M 414.64 55.29 A 27.64 27.64 0 0 1  442.28 82.93 L 414.64 55.29 A 27.64 27.64 0 0 0 442.28 82.93" fill="#18ace2"/><rect x="387" y="82.93" width="27.64" height="27.64" fill="#18ace2"/><path d="M 387 110.57000000000001 A 27.64 27.64 0 0 1  414.64 82.93 L 414.64 110.57000000000001" fill="#282bd2"/><rect x="414.64" y="82.93" width="27.64" height="27.64" fill="#282bd2"/><path d="M 414.64 82.93 A 27.64 27.64 0 0 1  442.28 110.57000000000001 L 414.64 82.93 A 27.64 27.64 0 0 0 442.28 110.57000000000001" fill="#282bd2"/><rect x="442.2857142857143" y="55.285714285714285" width="55.285714285714285" height="55.285714285714285" fill="#ffffff"/><rect x="442.29" y="55.29" width="27.64" height="27.64" fill="#18ace2"/><path d="M 442.29 55.29 A 27.64 27.64 0 0 1 469.93 82.93 L 442.29 82.93" fill="#18ace2"/><rect x="469.93" y="55.29" width="27.64" height="27.64" fill="#18ace2"/><path d="M 469.93 55.29 A 27.64 27.64 0 0 1  497.57 82.93 L 469.93 55.29 A 27.64 27.64 0 0 0 497.57 82.93" fill="#18ace2"/><rect x="442.29" y="82.93" width="27.64" height="27.64" fill="#282bd2"/><path d="M 442.29 110.57000000000001 A 27.64 27.64 0 0 1  469.93 82.93 L 442.29 110.57000000000001 A 27.64 27.64 0 0 0 469.93 82.93" fill="#18ace2"/><rect x="469.93" y="82.93" width="27.64" height="27.64" fill="#18ace2"/><path d="M 469.93 110.57000000000001 A 27.64 27.64 0 0 0 497.57 82.93 L 469.93 82.93" fill="#18ace2"/><rect x="497.57142857142856" y="55.285714285714285" width="55.285714285714285" height="55.285714285714285" fill="#ffffff"/><rect x="497.57" y="55.29" width="27.64" height="27.64" fill="#18ace2"/><path d="M 497.57 82.93 A 27.64 27.64 0 0 0 525.21 55.29 L 497.57 55.29" fill="#18ace2"/><rect x="525.21" y="55.29" width="27.64" height="27.64" fill="#18ace2"/><path d="M 525.21 82.93 A 27.64 27.64 0 0 1  552.85 55.29 L 552.85 82.93" fill="#18ace2"/><rect x="497.57" y="82.93" width="27.64" height="27.64" fill="#282bd2"/><path d="M 497.57 82.93 A 27.64 27.64 0 0 1  525.21 110.57000000000001 L 497.57 82.93 A 27.64 27.64 0 0 0 525.21 110.57000000000001" fill="#282bd2"/><rect x="525.21" y="82.93" width="27.64" height="27.64" fill="#18ace2"/><path d="M 525.21 82.93 A 27.64 27.64 0 0 1 552.85 110.57000000000001 L 525.21 110.57000000000001" fill="#18ace2"/><rect x="552.8571428571429" y="55.285714285714285" width="55.285714285714285" height="55.285714285714285" fill="#ffffff"/><rect x="552.86" y="55.29" width="27.64" height="27.64" fill="#18ace2"/><path d="M 552.86 82.93 A 27.64 27.64 0 0 1  580.5 55.29 L 580.5 82.93" fill="#18ace2"/><rect x="580.5" y="55.29" width="27.64" height="27.64" fill="#282bd2"/><path d="M 580.5 82.93 A 27.64 27.64 0 0 1  608.14 55.29 L 608.14 82.93" fill="#282bd2"/><rect x="552.86" y="82.93" width="27.64" height="27.64" fill="#282bd2"/><path d="M 552.86 82.93 A 27.64 27.64 0 0 1 580.5 110.57000000000001 L 552.86 110.57000000000001" fill="#282bd2"/><rect x="580.5" y="82.93" width="27.64" height="27.64" fill="#18ace2"/><path d="M 580.5 110.57000000000001 A 27.64 27.64 0 0 1  608.14 82.93 L 580.5 110.57000000000001 A 27.64 27.64 0 0 0 608.14 82.93" fill="#282bd2"/><rect x="0" y="110.57" width="55.29" height="55.29" fill="#282bd2"/><path d="M 0 165.85999999999999 A 55.29 55.29 0 0 1  55.29 110.57 L 55.29 165.85999999999999" fill="#282bd2"/><rect x="55.285714285714285" y="110.57142857142857" width="55.285714285714285" height="55.285714285714285" fill="#ffffff"/><rect x="55.29" y="110.57" width="27.64" height="27.64" fill="#282bd2"/><path d="M 55.29 110.57 A 27.64 27.64 0 0 1  82.93 138.20999999999998 L 55.29 110.57 A 27.64 27.64 0 0 0 82.93 138.20999999999998" fill="#282bd2"/><rect x="82.93" y="110.57" width="27.64" height="27.64" fill="#282bd2"/><path d="M 82.93 110.57 A 27.64 27.64 0 0 0 110.57000000000001 138.20999999999998 L 110.57000000000001 110.57" fill="#18ace2"/><rect x="55.29" y="138.21" width="27.64" height="27.64" fill="#282bd2"/><path d="M 55.29 138.21 A 27.64 27.64 0 0 1  82.93 165.85000000000002 L 55.29 138.21 A 27.64 27.64 0 0 0 82.93 165.85000000000002" fill="#18ace2"/><rect x="82.93" y="138.21" width="27.64" height="27.64" fill="#18ace2"/><path d="M 82.93 138.21 A 27.64 27.64 0 0 1 110.57000000000001 165.85000000000002 L 82.93 165.85000000000002" fill="#18ace2"/><rect x="110.57142857142857" y="110.57142857142857" width="55.285714285714285" height="55.285714285714285" fill="#ffffff"/><rect x="110.57" y="110.57" width="27.64" height="27.64" fill="#282bd2"/><path d="M 110.57 110.57 A 27.64 27.64 0 0 1 138.20999999999998 138.20999999999998 L 110.57 138.20999999999998" fill="#282bd2"/><rect x="138.21" y="110.57" width="27.64" height="27.64" fill="#18ace2"/><path d="M 138.21 138.20999999999998 A 27.64 27.64 0 0 1  165.85000000000002 110.57 L 165.85000000000002 138.20999999999998" fill="#282bd2"/><rect x="110.57" y="138.21" width="27.64" height="27.64" fill="#18ace2"/><path d="M 110.57 165.85000000000002 A 27.64 27.64 0 0 1  138.20999999999998 138.21 L 110.57 165.85000000000002 A 27.64 27.64 0 0 0 138.20999999999998 138.21" fill="#18ace2"/><rect x="138.21" y="138.21" width="27.64" height="27.64" fill="#282bd2"/><path d="M 138.21 138.21 A 27.64 27.64 0 0 1 165.85000000000002 165.85000000000002 L 138.21 165.85000000000002" fill="#18ace2"/><rect x="165.86" y="110.57" width="55.29" height="55.29" fill="#282bd2"/><path d="M 165.86 110.57 A 55.29 55.29 0 0 1  221.15 165.85999999999999 L 165.86 110.57 A 55.29 55.29 0 0 0 221.15 165.85999999999999" fill="#18ace2"/><rect x="221.14285714285714" y="110.57142857142857" width="55.285714285714285" height="55.285714285714285" fill="#ffffff"/><rect x="221.14" y="110.57" width="27.64" height="27.64" fill="#18ace2"/><path d="M 221.14 138.20999999999998 A 27.64 27.64 0 0 1  248.77999999999997 110.57 L 248.77999999999997 138.20999999999998" fill="#282bd2"/><rect x="248.79" y="110.57" width="27.64" height="27.64" fill="#282bd2"/><path d="M 248.79 110.57 A 27.64 27.64 0 0 0 276.43 138.20999999999998 L 276.43 110.57" fill="#18ace2"/><rect x="221.14" y="138.21" width="27.64" height="27.64" fill="#18ace2"/><path d="M 221.14 138.21 A 27.64 27.64 0 0 0 248.77999999999997 165.85000000000002 L 248.77999999999997 138.21" fill="#18ace2"/><rect x="248.79" y="138.21" width="27.64" height="27.64" fill="#18ace2"/><path d="M 248.79 138.21 A 27.64 27.64 0 0 0 276.43 165.85000000000002 L 276.43 138.21" fill="#18ace2"/><rect x="276.42857142857144" y="110.57142857142857" width="55.285714285714285" height="55.285714285714285" fill="#ffffff"/><rect x="276.43" y="110.57" width="27.64" height="27.64" fill="#282bd2"/><path d="M 276.43 138.20999999999998 A 27.64 27.64 0 0 0 304.07 110.57 L 276.43 110.57" fill="#18ace2"/><rect x="304.07" y="110.57" width="27.64" height="27.64" fill="#282bd2"/><path d="M 304.07 110.57 A 27.64 27.64 0 0 1 331.71 138.20999999999998 L 304.07 138.20999999999998" fill="#18ace2"/><rect x="276.43" y="138.21" width="27.64" height="27.64" fill="#18ace2"/><path d="M 276.43 138.21 A 27.64 27.64 0 0 0 304.07 165.85000000000002 L 304.07 138.21" fill="#282bd2"/><rect x="304.07" y="138.21" width="27.64" height="27.64" fill="#282bd2"/><path d="M 304.07 165.85000000000002 A 27.64 27.64 0 0 1  331.71 138.21 L 331.71 165.85000000000002" fill="#18ace2"/><rect x="331.71" y="110.57" width="55.29" height="55.29" fill="#18ace2"/><path d="M 331.71 110.57 A 55.29 55.29 0 0 1 387 165.85999999999999 L 331.71 165.85999999999999" fill="#18ace2"/><rect x="387" y="110.57" width="55.29" height="55.29" fill="#282bd2"/><path d="M 387 110.57 A 55.29 55.29 0 0 1 442.29 165.85999999999999 L 387 165.85999999999999" fill="#282bd2"/><rect x="442.2857142857143" y="110.57142857142857" width="55.285714285714285" height="55.285714285714285" fill="#ffffff"/><rect x="442.29" y="110.57" width="27.64" height="27.64" fill="#282bd2"/><path d="M 442.29 110.57 A 27.64 27.64 0 0 0 469.93 138.20999999999998 L 469.93 110.57" fill="#282bd2"/><rect x="469.93" y="110.57" width="27.64" height="27.64" fill="#18ace2"/><path d="M 469.93 110.57 A 27.64 27.64 0 0 1  497.57 138.20999999999998 L 469.93 110.57 A 27.64 27.64 0 0 0 497.57 138.20999999999998" fill="#18ace2"/><rect x="442.29" y="138.21" width="27.64" height="27.64" fill="#282bd2"/><path d="M 442.29 138.21 A 27.64 27.64 0 0 1  469.93 165.85000000000002 L 442.29 138.21 A 27.64 27.64 0 0 0 469.93 165.85000000000002" fill="#282bd2"/><rect x="469.93" y="138.21" width="27.64" height="27.64" fill="#18ace2"/><path d="M 469.93 165.85000000000002 A 27.64 27.64 0 0 1  497.57 138.21 L 497.57 165.85000000000002" fill="#282bd2"/><rect x="497.57142857142856" y="110.57142857142857" width="55.285714285714285" height="55.285714285714285" fill="#ffffff"/><rect x="497.57" y="110.57" width="27.64" height="27.64" fill="#18ace2"/><path d="M 497.57 110.57 A 27.64 27.64 0 0 1 525.21 138.20999999999998 L 497.57 138.20999999999998" fill="#282bd2"/><rect x="525.21" y="110.57" width="27.64" height="27.64" fill="#282bd2"/><path d="M 525.21 138.20999999999998 A 27.64 27.64 0 0 0 552.85 110.57 L 525.21 110.57" fill="#18ace2"/><rect x="497.57" y="138.21" width="27.64" height="27.64" fill="#18ace2"/><path d="M 497.57 165.85000000000002 A 27.64 27.64 0 0 1  525.21 138.21 L 525.21 165.85000000000002" fill="#18ace2"/><rect x="525.21" y="138.21" width="27.64" height="27.64" fill="#18ace2"/><path d="M 525.21 165.85000000000002 A 27.64 27.64 0 0 0 552.85 138.21 L 525.21 138.21" fill="#18ace2"/><rect x="552.86" y="110.57" width="55.29" height="55.29" fill="#282bd2"/><path d="M 552.86 165.85999999999999 A 55.29 55.29 0 0 0 608.15 110.57 L 552.86 110.57" fill="#18ace2"/><rect x="0" y="165.86" width="55.29" height="55.29" fill="#282bd2"/><path d="M 0 221.15 A 55.29 55.29 0 0 1  55.29 165.86 L 0 221.15 A 55.29 55.29 0 0 0 55.29 165.86" fill="#18ace2"/><rect x="55.285714285714285" y="165.85714285714286" width="55.285714285714285" height="55.285714285714285" fill="#ffffff"/><rect x="55.29" y="165.86" width="27.64" height="27.64" fill="#282bd2"/><path d="M 55.29 165.86 A 27.64 27.64 0 0 1  82.93 193.5 L 55.29 165.86 A 27.64 27.64 0 0 0 82.93 193.5" fill="#282bd2"/><rect x="82.93" y="165.86" width="27.64" height="27.64" fill="#18ace2"/><path d="M 82.93 165.86 A 27.64 27.64 0 0 1  110.57000000000001 193.5 L 82.93 165.86 A 27.64 27.64 0 0 0 110.57000000000001 193.5" fill="#18ace2"/><rect x="55.29" y="193.5" width="27.64" height="27.64" fill="#282bd2"/><path d="M 55.29 193.5 A 27.64 27.64 0 0 1  82.93 221.14 L 55.29 193.5 A 27.64 27.64 0 0 0 82.93 221.14" fill="#282bd2"/><rect x="82.93" y="193.5" width="27.64" height="27.64" fill="#18ace2"/><path d="M 82.93 221.14 A 27.64 27.64 0 0 0 110.57000000000001 193.5 L 82.93 193.5" fill="#282bd2"/><rect x="110.57142857142857" y="165.85714285714286" width="55.285714285714285" height="55.285714285714285" fill="#ffffff"/><rect x="110.57" y="165.86" width="27.64" height="27.64" fill="#282bd2"/><path d="M 110.57 165.86 A 27.64 27.64 0 0 1 138.20999999999998 193.5 L 110.57 193.5" fill="#18ace2"/><rect x="138.21" y="165.86" width="27.64" height="27.64" fill="#18ace2"/><path d="M 138.21 193.5 A 27.64 27.64 0 0 1  165.85000000000002 165.86 L 165.85000000000002 193.5" fill="#282bd2"/><rect x="110.57" y="193.5" width="27.64" height="27.64" fill="#282bd2"/><path d="M 110.57 221.14 A 27.64 27.64 0 0 1  138.20999999999998 193.5 L 138.20999999999998 221.14" fill="#18ace2"/><rect x="138.21" y="193.5" width="27.64" height="27.64" fill="#282bd2"/><path d="M 138.21 193.5 A 27.64 27.64 0 0 1 165.85000000000002 221.14 L 138.21 221.14" fill="#18ace2"/><rect x="165.85714285714286" y="165.85714285714286" width="55.285714285714285" height="55.285714285714285" fill="#ffffff"/><rect x="165.86" y="165.86" width="27.64" height="27.64" fill="#18ace2"/><path d="M 165.86 165.86 A 27.64 27.64 0 0 1 193.5 193.5 L 165.86 193.5" fill="#282bd2"/><rect x="193.5" y="165.86" width="27.64" height="27.64" fill="#18ace2"/><path d="M 193.5 165.86 A 27.64 27.64 0 0 1  221.14 193.5 L 193.5 165.86 A 27.64 27.64 0 0 0 221.14 193.5" fill="#282bd2"/><rect x="165.86" y="193.5" width="27.64" height="27.64" fill="#282bd2"/><path d="M 165.86 193.5 A 27.64 27.64 0 0 1 193.5 221.14 L 165.86 221.14" fill="#18ace2"/><rect x="193.5" y="193.5" width="27.64" height="27.64" fill="#18ace2"/><path d="M 193.5 221.14 A 27.64 27.64 0 0 1  221.14 193.5 L 193.5 221.14 A 27.64 27.64 0 0 0 221.14 193.5" fill="#18ace2"/><rect x="221.14285714285714" y="165.85714285714286" width="55.285714285714285" height="55.285714285714285" fill="#ffffff"/><rect x="221.14" y="165.86" width="27.64" height="27.64" fill="#282bd2"/><path d="M 221.14 165.86 A 27.64 27.64 0 0 1 248.77999999999997 193.5 L 221.14 193.5" fill="#18ace2"/><rect x="248.79" y="165.86" width="27.64" height="27.64" fill="#282bd2"/><path d="M 248.79 165.86 A 27.64 27.64 0 0 1 276.43 193.5 L 248.79 193.5" fill="#18ace2"/><rect x="221.14" y="193.5" width="27.64" height="27.64" fill="#18ace2"/><path d="M 221.14 193.5 A 27.64 27.64 0 0 1 248.77999999999997 221.14 L 221.14 221.14" fill="#18ace2"/><rect x="248.79" y="193.5" width="27.64" height="27.64" fill="#282bd2"/><path d="M 248.79 221.14 A 27.64 27.64 0 0 0 276.43 193.5 L 248.79 193.5" fill="#282bd2"/><rect x="276.43" y="165.86" width="55.29" height="55.29" fill="#18ace2"/><path d="M 276.43 221.15 A 55.29 55.29 0 0 1  331.72 165.86 L 331.72 221.15" fill="#282bd2"/><rect x="331.71" y="165.86" width="55.29" height="55.29" fill="#18ace2"/><path d="M 331.71 165.86 A 55.29 55.29 0 0 1 387 221.15 L 331.71 221.15" fill="#18ace2"/><rect x="387" y="165.86" width="55.29" height="55.29" fill="#282bd2"/><path d="M 387 221.15 A 55.29 55.29 0 0 1  442.29 165.86 L 387 221.15 A 55.29 55.29 0 0 0 442.29 165.86" fill="#282bd2"/><rect x="442.2857142857143" y="165.85714285714286" width="55.285714285714285" height="55.285714285714285" fill="#ffffff"/><rect x="442.29" y="165.86" width="27.64" height="27.64" fill="#282bd2"/><path d="M 442.29 165.86 A 27.64 27.64 0 0 1  469.93 193.5 L 442.29 165.86 A 27.64 27.64 0 0 0 469.93 193.5" fill="#18ace2"/><rect x="469.93" y="165.86" width="27.64" height="27.64" fill="#282bd2"/><path d="M 469.93 165.86 A 27.64 27.64 0 0 1  497.57 193.5 L 469.93 165.86 A 27.64 27.64 0 0 0 497.57 193.5" fill="#18ace2"/><rect x="442.29" y="193.5" width="27.64" height="27.64" fill="#282bd2"/><path d="M 442.29 193.5 A 27.64 27.64 0 0 0 469.93 221.14 L 469.93 193.5" fill="#282bd2"/><rect x="469.93" y="193.5" width="27.64" height="27.64" fill="#18ace2"/><path d="M 469.93 193.5 A 27.64 27.64 0 0 0 497.57 221.14 L 497.57 193.5" fill="#18ace2"/><rect x="497.57" y="165.86" width="55.29" height="55.29" fill="#18ace2"/><path d="M 497.57 221.15 A 55.29 55.29 0 0 1  552.86 165.86 L 497.57 221.15 A 55.29 55.29 0 0 0 552.86 165.86" fill="#18ace2"/><rect x="552.8571428571429" y="165.85714285714286" width="55.285714285714285" height="55.285714285714285" fill="#ffffff"/><rect x="552.86" y="165.86" width="27.64" height="27.64" fill="#18ace2"/><path d="M 552.86 193.5 A 27.64 27.64 0 0 1  580.5 165.86 L 552.86 193.5 A 27.64 27.64 0 0 0 580.5 165.86" fill="#18ace2"/><rect x="580.5" y="165.86" width="27.64" height="27.64" fill="#282bd2"/><path d="M 580.5 193.5 A 27.64 27.64 0 0 1  608.14 165.86 L 580.5 193.5 A 27.64 27.64 0 0 0 608.14 165.86" fill="#282bd2"/><rect x="552.86" y="193.5" width="27.64" height="27.64" fill="#282bd2"/><path d="M 552.86 193.5 A 27.64 27.64 0 0 1  580.5 221.14 L 552.86 193.5 A 27.64 27.64 0 0 0 580.5 221.14" fill="#282bd2"/><rect x="580.5" y="193.5" width="27.64" height="27.64" fill="#18ace2"/><path d="M 580.5 193.5 A 27.64 27.64 0 0 1  608.14 221.14 L 580.5 193.5 A 27.64 27.64 0 0 0 608.14 221.14" fill="#282bd2"/><rect x="0" y="221.14285714285714" width="55.285714285714285" height="55.285714285714285" fill="#ffffff"/><rect x="0" y="221.14" width="27.64" height="27.64" fill="#282bd2"/><path d="M 0 221.14 A 27.64 27.64 0 0 1  27.64 248.77999999999997 L 0 221.14 A 27.64 27.64 0 0 0 27.64 248.77999999999997" fill="#282bd2"/><rect x="27.64" y="221.14" width="27.64" height="27.64" fill="#18ace2"/><path d="M 27.64 248.77999999999997 A 27.64 27.64 0 0 1  55.28 221.14 L 55.28 248.77999999999997" fill="#282bd2"/><rect x="0" y="248.79" width="27.64" height="27.64" fill="#282bd2"/><path d="M 0 248.79 A 27.64 27.64 0 0 0 27.64 276.43 L 27.64 248.79" fill="#18ace2"/><rect x="27.64" y="248.79" width="27.64" height="27.64" fill="#18ace2"/><path d="M 27.64 248.79 A 27.64 27.64 0 0 1  55.28 276.43 L 27.64 248.79 A 27.64 27.64 0 0 0 55.28 276.43" fill="#282bd2"/><rect x="55.29" y="221.14" width="55.29" height="55.29" fill="#282bd2"/><path d="M 55.29 221.14 A 55.29 55.29 0 0 0 110.58 276.43 L 110.58 221.14" fill="#282bd2"/><rect x="110.57142857142857" y="221.14285714285714" width="55.285714285714285" height="55.285714285714285" fill="#ffffff"/><rect x="110.57" y="221.14" width="27.64" height="27.64" fill="#18ace2"/><path d="M 110.57 248.77999999999997 A 27.64 27.64 0 0 1  138.20999999999998 221.14 L 138.20999999999998 248.77999999999997" fill="#282bd2"/><rect x="138.21" y="221.14" width="27.64" height="27.64" fill="#18ace2"/><path d="M 138.21 248.77999999999997 A 27.64 27.64 0 0 1  165.85000000000002 221.14 L 165.85000000000002 248.77999999999997" fill="#282bd2"/><rect x="110.57" y="248.79" width="27.64" height="27.64" fill="#282bd2"/><path d="M 110.57 248.79 A 27.64 27.64 0 0 1  138.20999999999998 276.43 L 110.57 248.79 A 27.64 27.64 0 0 0 138.20999999999998 276.43" fill="#18ace2"/><rect x="138.21" y="248.79" width="27.64" height="27.64" fill="#282bd2"/><path d="M 138.21 276.43 A 27.64 27.64 0 0 1  165.85000000000002 248.79 L 165.85000000000002 276.43" fill="#18ace2"/><rect x="165.85714285714286" y="221.14285714285714" width="55.285714285714285" height="55.285714285714285" fill="#ffffff"/><rect x="165.86" y="221.14" width="27.64" height="27.64" fill="#282bd2"/><path d="M 165.86 248.77999999999997 A 27.64 27.64 0 0 1  193.5 221.14 L 193.5 248.77999999999997" fill="#18ace2"/><rect x="193.5" y="221.14" width="27.64" height="27.64" fill="#282bd2"/><path d="M 193.5 248.77999999999997 A 27.64 27.64 0 0 1  221.14 221.14 L 193.5 248.77999999999997 A 27.64 27.64 0 0 0 221.14 221.14" fill="#282bd2"/><rect x="165.86" y="248.79" width="27.64" height="27.64" fill="#18ace2"/><path d="M 165.86 276.43 A 27.64 27.64 0 0 0 193.5 248.79 L 165.86 248.79" fill="#282bd2"/><rect x="193.5" y="248.79" width="27.64" height="27.64" fill="#282bd2"/><path d="M 193.5 248.79 A 27.64 27.64 0 0 1 221.14 276.43 L 193.5 276.43" fill="#18ace2"/><rect x="221.14285714285714" y="221.14285714285714" width="55.285714285714285" height="55.285714285714285" fill="#ffffff"/><rect x="221.14" y="221.14" width="27.64" height="27.64" fill="#18ace2"/><path d="M 221.14 221.14 A 27.64 27.64 0 0 1  248.77999999999997 248.77999999999997 L 221.14 221.14 A 27.64 27.64 0 0 0 248.77999999999997 248.77999999999997" fill="#18ace2"/><rect x="248.79" y="221.14" width="27.64" height="27.64" fill="#282bd2"/><path d="M 248.79 221.14 A 27.64 27.64 0 0 0 276.43 248.77999999999997 L 276.43 221.14" fill="#282bd2"/><rect x="221.14" y="248.79" width="27.64" height="27.64" fill="#282bd2"/><path d="M 221.14 276.43 A 27.64 27.64 0 0 1  248.77999999999997 248.79 L 221.14 276.43 A 27.64 27.64 0 0 0 248.77999999999997 248.79" fill="#282bd2"/><rect x="248.79" y="248.79" width="27.64" height="27.64" fill="#18ace2"/><path d="M 248.79 248.79 A 27.64 27.64 0 0 0 276.43 276.43 L 276.43 248.79" fill="#282bd2"/><rect x="276.43" y="221.14" width="55.29" height="55.29" fill="#282bd2"/><path d="M 276.43 221.14 A 55.29 55.29 0 0 1 331.72 276.43 L 276.43 276.43" fill="#282bd2"/><rect x="331.71" y="221.14" width="55.29" height="55.29" fill="#18ace2"/><path d="M 331.71 276.43 A 55.29 55.29 0 0 0 387 221.14 L 331.71 221.14" fill="#282bd2"/><rect x="387" y="221.14" width="55.29" height="55.29" fill="#18ace2"/><path d="M 387 276.43 A 55.29 55.29 0 0 1  442.29 221.14 L 442.29 276.43" fill="#282bd2"/><rect x="442.29" y="221.14" width="55.29" height="55.29" fill="#282bd2"/><path d="M 442.29 221.14 A 55.29 55.29 0 0 1  497.58000000000004 276.43 L 442.29 221.14 A 55.29 55.29 0 0 0 497.58000000000004 276.43" fill="#18ace2"/><rect x="497.57" y="221.14" width="55.29" height="55.29" fill="#282bd2"/><path d="M 497.57 221.14 A 55.29 55.29 0 0 0 552.86 276.43 L 552.86 221.14" fill="#18ace2"/><rect x="552.8571428571429" y="221.14285714285714" width="55.285714285714285" height="55.285714285714285" fill="#ffffff"/><rect x="552.86" y="221.14" width="27.64" height="27.64" fill="#18ace2"/><path d="M 552.86 221.14 A 27.64 27.64 0 0 0 580.5 248.77999999999997 L 580.5 221.14" fill="#18ace2"/><rect x="580.5" y="221.14" width="27.64" height="27.64" fill="#282bd2"/><path d="M 580.5 248.77999999999997 A 27.64 27.64 0 0 1  608.14 221.14 L 580.5 248.77999999999997 A 27.64 27.64 0 0 0 608.14 221.14" fill="#282bd2"/><rect x="552.86" y="248.79" width="27.64" height="27.64" fill="#18ace2"/><path d="M 552.86 248.79 A 27.64 27.64 0 0 0 580.5 276.43 L 580.5 248.79" fill="#282bd2"/><rect x="580.5" y="248.79" width="27.64" height="27.64" fill="#282bd2"/><path d="M 580.5 276.43 A 27.64 27.64 0 0 1  608.14 248.79 L 608.14 276.43" fill="#18ace2"/><rect x="0" y="276.42857142857144" width="55.285714285714285" height="55.285714285714285" fill="#ffffff"/><rect x="0" y="276.43" width="27.64" height="27.64" fill="#282bd2"/><path d="M 0 304.07 A 27.64 27.64 0 0 1  27.64 276.43 L 0 304.07 A 27.64 27.64 0 0 0 27.64 276.43" fill="#18ace2"/><rect x="27.64" y="276.43" width="27.64" height="27.64" fill="#18ace2"/><path d="M 27.64 304.07 A 27.64 27.64 0 0 1  55.28 276.43 L 55.28 304.07" fill="#18ace2"/><rect x="0" y="304.07" width="27.64" height="27.64" fill="#18ace2"/><path d="M 0 304.07 A 27.64 27.64 0 0 1  27.64 331.71 L 0 304.07 A 27.64 27.64 0 0 0 27.64 331.71" fill="#282bd2"/><rect x="27.64" y="304.07" width="27.64" height="27.64" fill="#18ace2"/><path d="M 27.64 331.71 A 27.64 27.64 0 0 0 55.28 304.07 L 27.64 304.07" fill="#282bd2"/><rect x="55.285714285714285" y="276.42857142857144" width="55.285714285714285" height="55.285714285714285" fill="#ffffff"/><rect x="55.29" y="276.43" width="27.64" height="27.64" fill="#18ace2"/><path d="M 55.29 304.07 A 27.64 27.64 0 0 1  82.93 276.43 L 82.93 304.07" fill="#282bd2"/><rect x="82.93" y="276.43" width="27.64" height="27.64" fill="#282bd2"/><path d="M 82.93 304.07 A 27.64 27.64 0 0 1  110.57000000000001 276.43 L 82.93 304.07 A 27.64 27.64 0 0 0 110.57000000000001 276.43" fill="#18ace2"/><rect x="55.29" y="304.07" width="27.64" height="27.64" fill="#282bd2"/><path d="M 55.29 331.71 A 27.64 27.64 0 0 1  82.93 304.07 L 55.29 331.71 A 27.64 27.64 0 0 0 82.93 304.07" fill="#18ace2"/><rect x="82.93" y="304.07" width="27.64" height="27.64" fill="#18ace2"/><path d="M 82.93 304.07 A 27.64 27.64 0 0 1  110.57000000000001 331.71 L 82.93 304.07 A 27.64 27.64 0 0 0 110.57000000000001 331.71" fill="#18ace2"/><rect x="110.57" y="276.43" width="55.29" height="55.29" fill="#282bd2"/><path d="M 110.57 276.43 A 55.29 55.29 0 0 0 165.85999999999999 331.72 L 165.85999999999999 276.43" fill="#18ace2"/><rect x="165.86" y="276.43" width="55.29" height="55.29" fill="#18ace2"/><path d="M 165.86 276.43 A 55.29 55.29 0 0 0 221.15 331.72 L 221.15 276.43" fill="#18ace2"/><rect x="221.14285714285714" y="276.42857142857144" width="55.285714285714285" height="55.285714285714285" fill="#ffffff"/><rect x="221.14" y="276.43" width="27.64" height="27.64" fill="#18ace2"/><path d="M 221.14 304.07 A 27.64 27.64 0 0 0 248.77999999999997 276.43 L 221.14 276.43" fill="#18ace2"/><rect x="248.79" y="276.43" width="27.64" height="27.64" fill="#282bd2"/><path d="M 248.79 304.07 A 27.64 27.64 0 0 0 276.43 276.43 L 248.79 276.43" fill="#282bd2"/><rect x="221.14" y="304.07" width="27.64" height="27.64" fill="#18ace2"/><path d="M 221.14 304.07 A 27.64 27.64 0 0 0 248.77999999999997 331.71 L 248.77999999999997 304.07" fill="#282bd2"/><rect x="248.79" y="304.07" width="27.64" height="27.64" fill="#18ace2"/><path d="M 248.79 304.07 A 27.64 27.64 0 0 0 276.43 331.71 L 276.43 304.07" fill="#282bd2"/><rect x="276.42857142857144" y="276.42857142857144" width="55.285714285714285" height="55.285714285714285" fill="#ffffff"/><rect x="276.43" y="276.43" width="27.64" height="27.64" fill="#18ace2"/><path d="M 276.43 304.07 A 27.64 27.64 0 0 1  304.07 276.43 L 304.07 304.07" fill="#18ace2"/><rect x="304.07" y="276.43" width="27.64" height="27.64" fill="#282bd2"/><path d="M 304.07 304.07 A 27.64 27.64 0 0 1  331.71 276.43 L 331.71 304.07" fill="#18ace2"/><rect x="276.43" y="304.07" width="27.64" height="27.64" fill="#282bd2"/><path d="M 276.43 304.07 A 27.64 27.64 0 0 1 304.07 331.71 L 276.43 331.71" fill="#282bd2"/><rect x="304.07" y="304.07" width="27.64" height="27.64" fill="#18ace2"/><path d="M 304.07 304.07 A 27.64 27.64 0 0 1 331.71 331.71 L 304.07 331.71" fill="#18ace2"/><rect x="331.71" y="276.43" width="55.29" height="55.29" fill="#18ace2"/><path d="M 331.71 276.43 A 55.29 55.29 0 0 1 387 331.72 L 331.71 331.72" fill="#18ace2"/><rect x="387" y="276.42857142857144" width="55.285714285714285" height="55.285714285714285" fill="#ffffff"/><rect x="387" y="276.43" width="27.64" height="27.64" fill="#18ace2"/><path d="M 387 276.43 A 27.64 27.64 0 0 1  414.64 304.07 L 387 276.43 A 27.64 27.64 0 0 0 414.64 304.07" fill="#18ace2"/><rect x="414.64" y="276.43" width="27.64" height="27.64" fill="#18ace2"/><path d="M 414.64 276.43 A 27.64 27.64 0 0 0 442.28 304.07 L 442.28 276.43" fill="#282bd2"/><rect x="387" y="304.07" width="27.64" height="27.64" fill="#282bd2"/><path d="M 387 304.07 A 27.64 27.64 0 0 1  414.64 331.71 L 387 304.07 A 27.64 27.64 0 0 0 414.64 331.71" fill="#18ace2"/><rect x="414.64" y="304.07" width="27.64" height="27.64" fill="#282bd2"/><path d="M 414.64 304.07 A 27.64 27.64 0 0 1 442.28 331.71 L 414.64 331.71" fill="#18ace2"/><rect x="442.29" y="276.43" width="55.29" height="55.29" fill="#18ace2"/><path d="M 442.29 276.43 A 55.29 55.29 0 0 1  497.58000000000004 331.72 L 442.29 276.43 A 55.29 55.29 0 0 0 497.58000000000004 331.72" fill="#18ace2"/><rect x="497.57" y="276.43" width="55.29" height="55.29" fill="#282bd2"/><path d="M 497.57 276.43 A 55.29 55.29 0 0 0 552.86 331.72 L 552.86 276.43" fill="#282bd2"/><rect x="552.8571428571429" y="276.42857142857144" width="55.285714285714285" height="55.285714285714285" fill="#ffffff"/><rect x="552.86" y="276.43" width="27.64" height="27.64" fill="#282bd2"/><path d="M 552.86 304.07 A 27.64 27.64 0 0 0 580.5 276.43 L 552.86 276.43" fill="#18ace2"/><rect x="580.5" y="276.43" width="27.64" height="27.64" fill="#282bd2"/><path d="M 580.5 304.07 A 27.64 27.64 0 0 1  608.14 276.43 L 608.14 304.07" fill="#18ace2"/><rect x="552.86" y="304.07" width="27.64" height="27.64" fill="#18ace2"/><path d="M 552.86 331.71 A 27.64 27.64 0 0 1  580.5 304.07 L 552.86 331.71 A 27.64 27.64 0 0 0 580.5 304.07" fill="#282bd2"/><rect x="580.5" y="304.07" width="27.64" height="27.64" fill="#282bd2"/><path d="M 580.5 331.71 A 27.64 27.64 0 0 1  608.14 304.07 L 608.14 331.71" fill="#282bd2"/><rect x="0" y="331.71" width="55.29" height="55.29" fill="#18ace2"/><path d="M 0 387 A 55.29 55.29 0 0 0 55.29 331.71 L 0 331.71" fill="#18ace2"/><rect x="55.29" y="331.71" width="55.29" height="55.29" fill="#282bd2"/><path d="M 55.29 331.71 A 55.29 55.29 0 0 1  110.58 387 L 55.29 331.71 A 55.29 55.29 0 0 0 110.58 387" fill="#18ace2"/><rect x="110.57142857142857" y="331.7142857142857" width="55.285714285714285" height="55.285714285714285" fill="#ffffff"/><rect x="110.57" y="331.71" width="27.64" height="27.64" fill="#282bd2"/><path d="M 110.57 359.34999999999997 A 27.64 27.64 0 0 0 138.20999999999998 331.71 L 110.57 331.71" fill="#282bd2"/><rect x="138.21" y="331.71" width="27.64" height="27.64" fill="#282bd2"/><path d="M 138.21 331.71 A 27.64 27.64 0 0 1  165.85000000000002 359.34999999999997 L 138.21 331.71 A 27.64 27.64 0 0 0 165.85000000000002 359.34999999999997" fill="#18ace2"/><rect x="110.57" y="359.36" width="27.64" height="27.64" fill="#18ace2"/><path d="M 110.57 387 A 27.64 27.64 0 0 1  138.20999999999998 359.36 L 110.57 387 A 27.64 27.64 0 0 0 138.20999999999998 359.36" fill="#18ace2"/><rect x="138.21" y="359.36" width="27.64" height="27.64" fill="#282bd2"/><path d="M 138.21 359.36 A 27.64 27.64 0 0 1  165.85000000000002 387 L 138.21 359.36 A 27.64 27.64 0 0 0 165.85000000000002 387" fill="#282bd2"/><rect x="165.86" y="331.71" width="55.29" height="55.29" fill="#282bd2"/><path d="M 165.86 387 A 55.29 55.29 0 0 1  221.15 331.71 L 165.86 387 A 55.29 55.29 0 0 0 221.15 331.71" fill="#18ace2"/><rect x="221.14285714285714" y="331.7142857142857" width="55.285714285714285" height="55.285714285714285" fill="#ffffff"/><rect x="221.14" y="331.71" width="27.64" height="27.64" fill="#18ace2"/><path d="M 221.14 331.71 A 27.64 27.64 0 0 0 248.77999999999997 359.34999999999997 L 248.77999999999997 331.71" fill="#18ace2"/><rect x="248.79" y="331.71" width="27.64" height="27.64" fill="#18ace2"/><path d="M 248.79 359.34999999999997 A 27.64 27.64 0 0 1  276.43 331.71 L 248.79 359.34999999999997 A 27.64 27.64 0 0 0 276.43 331.71" fill="#18ace2"/><rect x="221.14" y="359.36" width="27.64" height="27.64" fill="#18ace2"/><path d="M 221.14 387 A 27.64 27.64 0 0 1  248.77999999999997 359.36 L 221.14 387 A 27.64 27.64 0 0 0 248.77999999999997 359.36" fill="#282bd2"/><rect x="248.79" y="359.36" width="27.64" height="27.64" fill="#18ace2"/><path d="M 248.79 387 A 27.64 27.64 0 0 1  276.43 359.36 L 248.79 387 A 27.64 27.64 0 0 0 276.43 359.36" fill="#282bd2"/><rect x="276.43" y="331.71" width="55.29" height="55.29" fill="#18ace2"/><path d="M 276.43 331.71 A 55.29 55.29 0 0 0 331.72 387 L 331.72 331.71" fill="#282bd2"/><rect x="331.71" y="331.71" width="55.29" height="55.29" fill="#282bd2"/><path d="M 331.71 387 A 55.29 55.29 0 0 1  387 331.71 L 387 387" fill="#282bd2"/><rect x="387" y="331.7142857142857" width="55.285714285714285" height="55.285714285714285" fill="#ffffff"/><rect x="387" y="331.71" width="27.64" height="27.64" fill="#282bd2"/><path d="M 387 359.34999999999997 A 27.64 27.64 0 0 1  414.64 331.71 L 414.64 359.34999999999997" fill="#18ace2"/><rect x="414.64" y="331.71" width="27.64" height="27.64" fill="#18ace2"/><path d="M 414.64 331.71 A 27.64 27.64 0 0 1  442.28 359.34999999999997 L 414.64 331.71 A 27.64 27.64 0 0 0 442.28 359.34999999999997" fill="#18ace2"/><rect x="387" y="359.36" width="27.64" height="27.64" fill="#282bd2"/><path d="M 387 359.36 A 27.64 27.64 0 0 1 414.64 387 L 387 387" fill="#282bd2"/><rect x="414.64" y="359.36" width="27.64" height="27.64" fill="#18ace2"/><path d="M 414.64 359.36 A 27.64 27.64 0 0 1  442.28 387 L 414.64 359.36 A 27.64 27.64 0 0 0 442.28 387" fill="#18ace2"/><rect x="442.29" y="331.71" width="55.29" height="55.29" fill="#18ace2"/><path d="M 442.29 387 A 55.29 55.29 0 0 1  497.58000000000004 331.71 L 497.58000000000004 387" fill="#18ace2"/><rect x="497.57142857142856" y="331.7142857142857" width="55.285714285714285" height="55.285714285714285" fill="#ffffff"/><rect x="497.57" y="331.71" width="27.64" height="27.64" fill="#18ace2"/><path d="M 497.57 359.34999999999997 A 27.64 27.64 0 0 1  525.21 331.71 L 497.57 359.34999999999997 A 27.64 27.64 0 0 0 525.21 331.71" fill="#282bd2"/><rect x="525.21" y="331.71" width="27.64" height="27.64" fill="#282bd2"/><path d="M 525.21 359.34999999999997 A 27.64 27.64 0 0 0 552.85 331.71 L 525.21 331.71" fill="#282bd2"/><rect x="497.57" y="359.36" width="27.64" height="27.64" fill="#282bd2"/><path d="M 497.57 359.36 A 27.64 27.64 0 0 0 525.21 387 L 525.21 359.36" fill="#18ace2"/><rect x="525.21" y="359.36" width="27.64" height="27.64" fill="#282bd2"/><path d="M 525.21 359.36 A 27.64 27.64 0 0 1  552.85 387 L 525.21 359.36 A 27.64 27.64 0 0 0 552.85 387" fill="#282bd2"/><rect x="552.86" y="331.71" width="55.29" height="55.29" fill="#18ace2"/><path d="M 552.86 331.71 A 55.29 55.29 0 0 1  608.15 387 L 552.86 331.71 A 55.29 55.29 0 0 0 608.15 387" fill="#18ace2"/></g></svg>