<?xml version="1.0" standalone="no"?>
<svg viewBox="0 0 200 200" xmlns="http://www.w3.org/2000/svg">
  <path fill="#08BDBA" d="M19.2,-43.3C25,-30,29.9,-25,38.8,-19.2C47.7,-13.4,60.5,-6.7,63.2,1.6C66,9.8,58.5,19.7,49.5,25.2C40.5,30.8,29.9,32.1,21.4,39.6C12.8,47.2,6.4,61,-3.1,66.4C-12.6,71.8,-25.3,68.7,-31.6,59.9C-38,51.1,-38,36.6,-41.8,25.6C-45.5,14.7,-52.8,7.3,-56.4,-2.1C-60,-11.5,-59.7,-22.9,-55.6,-33.1C-51.5,-43.3,-43.4,-52.3,-33.5,-63.2C-23.6,-74.2,-11.8,-87,-2.5,-82.6C6.7,-78.2,13.4,-56.5,19.2,-43.3Z" transform="translate(100 100)" />
</svg>
