<?xml version="1.0" standalone="no"?>
<svg viewBox="0 0 200 200" xmlns="http://www.w3.org/2000/svg">
  <path fill="#08BDBA" d="M7.8,-25C7.8,-13.5,3.9,-6.8,14.7,-3.4C25.4,0,50.7,0,59.6,5.1C68.5,10.3,61,20.6,54.1,30.6C47.2,40.6,41,50.5,32.1,45.5C23.2,40.5,11.6,20.8,2.1,17.1C-7.4,13.5,-14.8,25.9,-21.2,29.5C-27.6,33,-33.1,27.6,-45.7,21.2C-58.4,14.8,-78.3,7.4,-77.4,0.5C-76.5,-6.4,-54.8,-12.7,-39.7,-14.9C-24.6,-17.2,-16.2,-15.3,-10.6,-23.6C-5.1,-31.9,-2.6,-50.4,0.7,-51.6C3.9,-52.7,7.8,-36.5,7.8,-25Z" transform="translate(100 100)" />
</svg>
